<svg width="64" height="64" viewBox="0 0 64 64" fill="none" xmlns="http://www.w3.org/2000/svg">
<rect width="64" height="64" fill="white"/>
<path d="M21.0588 45.8076L16.6448 38.3402C16.512 38.0968 16.4457 37.787 16.4457 37.4109C16.4457 36.8577 16.5784 36.3599 16.8439 35.9174C16.9767 35.6962 17.043 35.486 17.043 35.2868C17.043 34.7779 16.7112 34.5235 16.0474 34.5235H4.89609C4.2987 34.5235 4 34.258 4 33.727C4 33.4836 4.07744 33.2181 4.23232 32.9304L12.5294 18.593C12.7728 18.1505 13.1379 17.7744 13.6246 17.4646C14.1114 17.1549 14.576 17 15.0186 17H37.3212C37.9407 17 38.2504 17.2655 38.2504 17.7965C38.2504 18.0399 38.173 18.3054 38.0181 18.593L36.1596 21.7791C35.9162 22.2216 35.5401 22.5978 35.0312 22.9075C34.5444 23.2173 34.0798 23.3722 33.6373 23.3722H25.672C25.0746 23.3722 24.7759 23.1067 24.7759 22.5757C24.7759 22.3323 24.8534 22.0668 25.0083 21.7791L25.9375 20.1861C26.0924 19.8985 26.1699 19.6329 26.1699 19.3896C26.1699 18.8586 25.8712 18.593 25.2738 18.593C24.8313 18.593 24.3556 18.7479 23.8467 19.0577C23.3599 19.3674 22.9948 19.7436 22.7515 20.1861L16.3129 31.3374C16.1359 31.625 16.0474 31.8905 16.0474 32.1339C16.0474 32.6649 16.3572 32.9304 16.9767 32.9304C17.4192 32.9304 17.8838 32.7756 18.3706 32.4658C18.8573 32.1561 19.2335 31.7799 19.499 31.3374L22.2536 26.5583C22.497 26.1158 22.8621 25.7396 23.3488 25.4299C23.8577 25.1201 24.3334 24.9652 24.7759 24.9652H32.7412C33.3386 24.9652 33.6373 25.2307 33.6373 25.7617C33.6373 26.0051 33.5598 26.2706 33.4049 26.5583L22.6187 45.2765C22.2868 45.8518 21.9328 46.1394 21.5567 46.1394C21.3575 46.1394 21.1916 46.0288 21.0588 45.8076Z" fill="black"/>
<path d="M54.5015 34.9633H46.5363C45.9389 34.9633 45.6402 34.6978 45.6402 34.1668C45.6402 33.9234 45.7177 33.6579 45.8725 33.3703L46.8018 31.7772C46.9567 31.4896 47.0341 31.2241 47.0341 30.9807C47.0341 30.4497 46.7244 30.1842 46.1049 30.1842C45.6845 30.1842 45.2198 30.3391 44.7109 30.6488C44.2242 30.9586 43.8591 31.3347 43.6157 31.7772L41.7572 34.9633C41.6023 35.2509 41.5249 35.5164 41.5249 35.7598C41.5249 36.2908 41.8346 36.5564 42.4541 36.5564H53.6054C54.2028 36.5564 54.5015 36.8219 54.5015 37.3529C54.5015 37.5963 54.4241 37.8618 54.2692 38.1494L50.5853 44.5216C50.3419 44.9641 49.9658 45.3402 49.4569 45.65C48.9701 45.9597 48.5055 46.1146 48.063 46.1146H25.7603C25.163 46.1146 24.8643 45.8491 24.8643 45.3181C24.8643 45.0747 24.9417 44.8092 25.0966 44.5216L26.9219 41.3355C27.1874 40.893 27.5636 40.5168 28.0503 40.2071C28.5371 39.8973 29.0017 39.7424 29.4443 39.7424H37.4095C38.029 39.7424 38.3388 40.0079 38.3388 40.539C38.3388 40.7823 38.2503 41.0479 38.0733 41.3355L37.1772 42.9285C37.0002 43.2162 36.9117 43.4817 36.9117 43.7251C36.9117 44.2561 37.2214 44.5216 37.8409 44.5216C38.2834 44.5216 38.7481 44.3667 39.2349 44.0569C39.7216 43.7472 40.0977 43.371 40.3633 42.9285L42.1886 39.7424C42.3656 39.4548 42.4541 39.1893 42.4541 38.9459C42.4541 38.4149 42.1444 38.1494 41.5249 38.1494H30.3735C29.754 38.1494 29.4443 37.8839 29.4443 37.3529C29.4443 37.1095 29.5328 36.844 29.7098 36.5564L33.3605 30.1842C33.626 29.7417 34.0021 29.3655 34.4889 29.0558C34.9757 28.746 35.4403 28.5911 35.8828 28.5911H58.1854C58.805 28.5911 59.1147 28.8566 59.1147 29.3876C59.1147 29.631 59.0262 29.8965 58.8492 30.1842L57.0238 33.3703C56.7805 33.8128 56.4043 34.1889 55.8954 34.4987C55.4087 34.8084 54.944 34.9633 54.5015 34.9633Z" fill="black"/>
</svg>
